# xmcd
#
# Track frame offsets:
#  150
#  26025
#  46685
#  73820
#  97159
#  117161
#  145068
#  165187
#  183662
#  204881
#  235953
#
# Disc length: 3238 seconds
#
# Revision: 0
# Processed by: cddbd v1.4PL0 Copyright (c) Steve Scherf et al.
# Submitted via: AltoMP3_Maker 3.0
#
DISCID=920ca40b
DTITLE=Sean Wilson - 50 Greatest Songs
DYEAR=1900
DGENRE=
TTITLE0=Lovely Leitrim, Gentle Mother Etc
TTITLE1=Cottage in the contry Etc
TTITLE2=Village in the county,Tyrone,Etc
TTITLE3=Drumlish,Three leaf Shamrock,Etc
TTITLE4=Where the grass grows greenest,Etc
TTITLE5=Cocky Farmer,Fields of Athenry,Etc
TTITLE6=Bed of roses,Pull the covers over me,Etc
TTITLE7=For ever and ever,My wild irish rose,Etc
TTITLE8=Oh lonesome me,I still miss someone,Etc
TTITLE9=Old Pals,My side of the road,Etc
TTITLE10=The Great Party Singalong End Credits
EXTD=
EXTT0=
EXTT1=
EXTT2=
EXTT3=
EXTT4=
EXTT5=
EXTT6=
EXTT7=
EXTT8=
EXTT9=
EXTT10=
PLAYORDER=
